# xmcd
#
# Track frame offsets: 
#        150
#        1827
#        19619
#        60479
#        73920
#        86547
#        98771
#        100107
#        132427
#        136785
#        140145
#        145960
#        148515
#        152330
#        157423
#        169788
#        185304
#        187553
#        191393
#        200983
#        209139
#        222446
#        238629
#        252301
#        280841
#        287438
#
# Disc length: 3946 seconds
#
# Revision: 0
# Processed by: cddbd v1.5.2PL0 Copyright (c) Steve Scherf et al.
# Submitted via: ExactAudioCopy v0.95b3
#
DISCID=810f681a
DTITLE=The Beatles  - AB  Road - Complete Purple Chick Set v1.1 Jan.21
DTITLE=Various Artist - D3  FLAC
DYEAR=1900
DGENRE=
TTITLE0=Dig A Pony 21.64
TTITLE1=I've Got A Feeling 21.65
TTITLE2=Don't Let Me Down 21.66
TTITLE3=I've Got A Feeling 21.54P
TTITLE4=Dig A Pony 21.49P
TTITLE5=Shout! 21.52P
TTITLE6=Papa's Got A Brand New Bag 21.50P
TTITLE7=Dig A Pony 21.49P
TTITLE8=Dig A Pony 21.67
TTITLE9=Dig A Pony 21.68
TTITLE10=Dig A Pony 21.69
TTITLE11=Dig A Pony 21.70
TTITLE12=Dialogue
TTITLE13=Let's Dance 21.71
TTITLE14=Improvisation 21.72
TTITLE15=Don't Let Me Down 21.73
TTITLE16=Unknown 21.74
TTITLE17=Get Back-improvisation 21.75
TTITLE18=For You Blue 21.76
TTITLE19=She Came In Through The Bathroom Window 21.77
TTITLE20=She Came In Through The Bathroom Window 21.78
TTITLE21=She Came In Through The Bathroom Window 21.79
TTITLE22=She Came In Through The Bathroom Window 21.80
TTITLE23=She Came In Through The Bathroom Window 21.81
TTITLE24=Madman 21.82
TTITLE25=Is That A Chicken Joke 21.83
EXTD=
EXTT0=
EXTT1=
EXTT2=
EXTT3=
EXTT4=
EXTT5=
EXTT6=
EXTT7=
EXTT8=
EXTT9=
EXTT10=
EXTT11=
EXTT12=
EXTT13=
EXTT14=
EXTT15=
EXTT16=
EXTT17=
EXTT18=
EXTT19=
EXTT20=
EXTT21=
EXTT22=
EXTT23=
EXTT24=
EXTT25=
PLAYORDER=
